PathFileType	4	(X/Y/Z)	C:/Users/opensim2020/Desktop/walking_exp_matlab/subject01_walking15_straight_01.trc																																																																																																																															
DataRate	CameraRate	NumFrames	NumMarkers	Units	OrigDataRate	OrigDataStartFrame	OrigNumFrames																																																																																																																											
100	100	5	43	mm	100	761	125																																																																																																																											
Frame#	Time	LFHD			RFHD			LBHD			RBHD			C7			T10			CLAV			STRN			RBAK			LSHO			LUPA			LELB			LFRM			LWRA			LWRB			LFIN			RSHO			RUPA			RELB			RFRM			RWRA			RWRB			RFIN			LASI			RASI			LPSI			RPSI			LTHI			LKNE			LTIB			LANK			LHEE			LTOE			RTHI			RKNE			RTIB			RANK			RHEE			RTOE			*39			*40			*41			*42		
		X1	Y1	Z1	X2	Y2	Z2	X3	Y3	Z3	X4	Y4	Z4	X5	Y5	Z5	X6	Y6	Z6	X7	Y7	Z7	X8	Y8	Z8	X9	Y9	Z9	X10	Y10	Z10	X11	Y11	Z11	X12	Y12	Z12	X13	Y13	Z13	X14	Y14	Z14	X15	Y15	Z15	X16	Y16	Z16	X17	Y17	Z17	X18	Y18	Z18	X19	Y19	Z19	X20	Y20	Z20	X21	Y21	Z21	X22	Y22	Z22	X23	Y23	Z23	X24	Y24	Z24	X25	Y25	Z25	X26	Y26	Z26	X27	Y27	Z27	X28	Y28	Z28	X29	Y29	Z29	X30	Y30	Z30	X31	Y31	Z31	X32	Y32	Z32	X33	Y33	Z33	X34	Y34	Z34	X35	Y35	Z35	X36	Y36	Z36	X37	Y37	Z37	X38	Y38	Z38	X39	Y39	Z39	X40	Y40	Z40	X41	Y41	Z41	X42	Y42	Z42	X43	Y43	Z43
																																																																																																																																		
94	0.93	307.70297	1662.10303	1351.61951	346.78058	1676.47168	1456.73999	196.47371	1622.31177	1390.89722	235.49503	1635.92175	1503.08936	167.2616	1429.98474	1430.15051	132.15021	1135.54749	1451.83264	315.64993	1366.30457	1438.66553	358.7951	1211.84265	1446.56506	110.92057	1241.18237	1515.68372	256.79956	1389.25903	1276.68079	239.18112	1204.40808	1197.03381	232.85115	1051.70435	1197.81409	282.96689	948.40399	1175.77441	375.59537	844.45624	1197.49304	321.71918	832.00671	1174.34851	378.6586	771.06818	1162.84509	241.81371	1408.64014	1583.48132	177.65269	1218.88477	1695.48584	186.41864	1092.11438	1709.54932	230.3438	978.36273	1742.44812	322.67581	871.56537	1718.36304	285.47308	869.05579	1762.51099	332.91284	796.10022	1760.60449	321.14359	935.11969	1360.6272	306.06555	934.12885	1576.13501	131.27538	943.68921	1400.79224	125.867	942.81775	1546.28394	310.3623	598.64996	1318.98694	305.7598	463.52112	1343.99036	244.71338	282.48804	1341.92126	197.58589	73.29027	1405.5968	148.66606	48.13225	1457.94629	342.07721	34.24527	1402.38086	320.77475	604.74005	1648.677	357.38699	452.54086	1639.20166	215.55496	350.69437	1637.45093	70.87724	204.65343	1589.96643	15.22405	208.27504	1533.7594	129.74686	73.12822	1598.1366	330.32141	1708.30908	1434.12695	1973.12195	1023.4176	-3101.91235	2012.51392	1022.06445	-3140.64063	NaN	NaN	NaN
95	0.94	321.6004	1662.72351	1350.76611	361.06232	1676.98218	1455.80774	210.24937	1623.43079	1390.41479	249.71638	1636.89099	1502.50183	180.48302	1430.93408	1429.52539	145.38979	1136.46912	1451.38257	328.81494	1367.16187	1437.81604	371.86563	1212.66174	1445.67004	124.13017	1242.26746	1515.46985	269.61569	1390.3219	1276.00781	253.23027	1205.64099	1195.83728	249.37422	1052.82861	1196.16016	303.46756	950.8877	1174.29382	400.72906	851.46515	1195.73755	347.38486	836.10474	1173.07227	406.68884	777.99939	1161.49756	255.22015	1409.31763	1582.71521	189.95445	1219.84827	1694.5658	197.38515	1093.31885	1708.18848	237.37488	978.73932	1742.10352	325.52762	868.06281	1719.26904	288.06934	867.42706	1763.24304	332.27478	792.2934	1761.95398	333.02344	935.94409	1359.25769	319.63333	935.37708	1574.57251	143.76012	944.95844	1401.33765	139.4847	944.23157	1546.8064	316.07187	598.7077	1318.75476	308.94669	463.52939	1342.88147	245.5696	283.17361	1341.52917	197.41039	73.86813	1405.59253	148.80374	49.33957	1457.96545	342.07385	34.17021	1401.99023	340.2984	607.81989	1647.95251	380.38766	456.27325	1637.86438	242.70044	348.55569	1636.46057	104.48209	195.84802	1589.55212	48.16613	195.86084	1534.36279	173.00444	69.64434	1597.60107	344.66748	1708.90796	1433.22314	1973.07959	1023.50146	-3101.9104	2012.45764	1022.11267	-3140.69336	NaN	NaN	NaN
96	0.95	335.46927	1663.2467	1350.01746	375.22476	1677.3667	1454.93616	224.09644	1624.33606	1389.94019	263.87857	1637.66956	1501.95203	193.95255	1431.62231	1429.04504	158.94234	1137.16907	1450.89905	341.99515	1367.78845	1436.94275	384.90707	1213.27893	1444.70337	137.3503	1243.24377	1515.29016	282.56281	1391.31567	1275.32764	266.99487	1206.76917	1194.76416	265.71423	1053.43164	1194.55701	324.07776	953.65002	1173.11511	425.26865	858.4895	1194.16418	372.46967	840.86774	1171.85156	434.32678	785.31396	1160.10693	268.79941	1410.09888	1582.18127	202.2076	1220.67371	1693.65918	208.23662	1094.37329	1706.78186	244.31084	979.12384	1741.67871	328.15918	864.77289	1720.1571	290.55466	866.23993	1764.19519	331.49286	788.97815	1763.39172	345.10089	936.65216	1358.07397	332.82806	936.28741	1573.06384	156.20494	946.06439	1401.8667	153.0611	945.73859	1547.57544	321.99438	598.72089	1317.82092	312.50079	463.5556	1341.89709	246.37048	283.78503	1341.09082	198.15575	74.69268	1405.44946	149.58954	50.13899	1458.52405	342.17969	34.11159	1401.71265	359.16354	610.72528	1647.1283	402.61938	459.66989	1636.17163	269.99316	345.47958	1635.59631	139.09793	186.16899	1589.24634	81.78781	182.00505	1534.55103	216.6127	66.14389	1597.69299	358.89337	1709.32446	1432.39551	1973.14526	1023.58691	-3101.92627	2012.4729	1022.11102	-3140.74146	NaN	NaN	NaN
97	0.96	349.30002	1663.60596	1349.32495	389.45663	1677.67346	1454.26465	237.8741	1625.00037	1389.57043	278.01749	1638.17456	1501.40845	207.22253	1432.23218	1428.53357	171.57216	1137.93713	1450.39844	355.28864	1368.33899	1436.20068	397.99631	1213.84644	1443.88501	150.66699	1243.99939	1515.06763	295.59866	1392.11707	1274.69177	280.76212	1207.70105	1193.62158	281.84753	1054.00171	1193.1344	344.87546	956.48468	1172.09717	449.41156	865.87445	1192.67444	397.51279	845.79974	1171.24341	461.52032	792.99469	1158.78992	282.28635	1410.38831	1581.34302	214.4615	1221.28735	1692.67981	219.15868	1095.32056	1705.40393	251.16832	979.4657	1741.18848	330.65518	861.68127	1721.08093	292.89139	864.92096	1764.67786	330.50992	785.94696	1764.82898	357.01328	937.0213	1356.99463	346.20987	937.48596	1571.5603	168.60197	947.02838	1402.46643	166.34067	946.64832	1548.18372	328.56247	598.62061	1317.34155	316.25464	463.53796	1341.06799	247.66333	284.67847	1340.66797	198.21129	75.60335	1405.21448	149.83365	51.58555	1458.66492	342.24078	34.08891	1401.50378	377.73495	613.44965	1646.13757	424.34055	463.0762	1634.37988	298.72507	340.95007	1634.88074	174.6857	175.94643	1589.12537	117.15684	167.50839	1534.15552	260.31061	62.36265	1598.20386	373.05527	1709.56897	1431.68433	1973.11511	1023.51819	-3101.90527	2012.53149	1022.18982	-3140.74512	NaN	NaN	NaN
98	0.97	363.11899	1663.84485	1348.6864	403.46878	1677.62268	1453.46655	251.65744	1625.46313	1389.20166	292.08548	1638.48511	1500.95679	220.70082	1432.64844	1428.01941	184.62854	1138.45862	1449.98083	368.66925	1368.63696	1435.47778	411.13879	1214.12744	1443.01611	164.04361	1244.52393	1514.67493	308.59247	1392.75134	1274.06506	294.4574	1208.51758	1192.6167	298.02451	1054.45215	1191.88806	364.66583	959.23224	1170.96509	473.12439	873.42761	1191.26526	422.05597	850.90955	1170.22571	488.4274	801.01202	1157.64709	295.97644	1410.77417	1580.9458	226.67079	1221.73792	1691.70642	230.0752	1096.09766	1704.05432	257.97205	979.78546	1740.70972	333.12369	858.85638	1722.07129	295.19427	864.039	1765.49902	329.59445	783.48535	1766.36487	368.89716	937.03516	1355.97974	359.78845	938.45288	1570.54224	180.91347	947.74158	1403.05286	179.75145	947.56116	1548.98682	335.46844	598.3949	1317.10315	320.41653	463.48541	1340.3844	249.48117	285.59058	1340.42432	198.72797	76.79576	1405.32715	150.38429	52.97169	1458.93445	342.49438	33.90144	1401.50903	395.86615	616.18567	1645.4436	445.13599	465.8295	1632.23401	325.31387	336.51328	1634.0238	210.73149	164.99075	1588.87207	153.9055	152.33427	1533.88013	304.33444	58.82475	1599.1272	387.06155	1709.48547	1430.96936	1973.1145	1023.68726	-3101.97266	2012.51978	1022.11646	-3140.80469	NaN	NaN	NaN
